# xmcd CD database file
#
# Track frame offsets:
#	150
#	17214
#	28038
#	49502
#	65318
#	81661
#	102799
#	117264
#	134694
#	159852
#	177623
#	190365
#	205709
#	221253
#	246043
#
# Disc length: 3598 seconds
#
# Revision: 0
# Processed by: cddbd v1.5.2PL0 Copyright (c) Steve Scherf et al.
# Submitted via: CDex 1.51
#
DISCID=d00e0c0f
DTITLE=Cris Juanico amb Original Jazz Orquestra - Vola'm a sa lluna
DYEAR=2006
DGENRE=Jazz
TTITLE0=Georgia em ve en es cap
TTITLE1=Vola'm a sa lluna
TTITLE2=Febre
TTITLE3=Caravana
TTITLE4=Et tinc dins sa meua pell
TTITLE5=Amb motivació sentida
TTITLE6=Passa de llarg
TTITLE7=Dia i nit
TTITLE8=Es meu bé estrany
TTITLE9=Deu ser amor
TTITLE10=Sa big band a tocar!
TTITLE11=Tot el que vull és poder fer-te l'amor
TTITLE12=Allò era Laura
TTITLE13=No tornaré a sortir mai més
TTITLE14=Sa big band a tocar! (making off de la gravació)
EXTD=YEAR: 2006
EXTT0=
EXTT1=
EXTT2=
EXTT3=
EXTT4=
EXTT5=
EXTT6=
EXTT7=
EXTT8=
EXTT9=
EXTT10=
EXTT11=
EXTT12=
EXTT13=
EXTT14=
PLAYORDER=
